<?xml version="1.0" encoding="utf-8"?>
<!-- Generator: Adobe Illustrator 16.0.0, SVG Export Plug-In . SVG Version: 6.00 Build 0)  -->
<!DOCTYPE svg PUBLIC "-//W3C//DTD SVG 1.1//EN" "http://www.w3.org/Graphics/SVG/1.1/DTD/svg11.dtd">
<svg version="1.1" id="Layer_1" xmlns="http://www.w3.org/2000/svg" xmlns:xlink="http://www.w3.org/1999/xlink" x="0px" y="0px"
	 width="708.661px" height="708.661px" viewBox="0 0 708.661 708.661" enable-background="new 0 0 708.661 708.661"
	 xml:space="preserve">
<g>
	<g>
		<path d="M645.072,276.125c-0.05-34.396-69.554-40.415-160.574-22.723v10.916c77.948-14.59,134.062-9.243,136.77,20.948
			c4.89,54.556-87.289,122.388-234.415,180.014c-147.126,57.628-278.819,73.255-298.387,24.997
			c-16.179-39.9,61.158-98.889,172.7-150.811v-11.154C132.984,387.847,42.462,459.794,60.634,501.034
			c22.864,51.888,165.67,35.149,327.058-28.064C549.08,409.758,645.162,337.787,645.072,276.125z"/>
		<path d="M460.153,425.363c2.95-1.416,5.874-2.833,8.755-4.255l3.457-1.851l2.027-76.339l-44.85,23.387l2.935-90.176l11.706-6.104
			l-2.482,75.766l12.551-6.545l2.598-88.091l-36.748,19.162l-4.839,119.82l46.59-24.293L460.153,425.363z"/>
		<path d="M402.555,450.795l0.782-18.01l-12.874,6.722l-0.774,16.446C394.026,454.242,398.315,452.522,402.555,450.795z"/>
		<path d="M438.747,435.308c4.13-1.857,8.201-3.722,12.213-5.593l0.638-0.419l1.4-47.526l-48.579,25.319l6.006-142.616
			l55.396-28.886l-2.914,99.148l11.828-6.145l3.005-114.97l-78.575,40.968L391,428.093l48.825-25.457L438.747,435.308z"/>
		<path d="M427.056,440.481l0.672-20.401l-13.76,7.165l-0.748,19.145C417.896,444.43,422.509,442.46,427.056,440.481z"/>
		<path d="M437.985,458.426l-1.009,30.542l-11.724,6.144l1.012-31.587c-4.598,1.973-9.26,3.938-13.982,5.896l-1.842,48.089
			l39.152-20.411l1.316-44.485C446.661,454.556,442.355,456.494,437.985,458.426z"/>
		<path d="M459.66,448.561c-0.072,0.034-0.143,0.067-0.215,0.102l-1.599,52.624l-58.682,30.585l2.445-58.078
			c-4.287,1.733-8.621,3.46-13.006,5.181l-3.606,76.667l84.961-44.303l1.792-68.539c-0.005,0.003-0.011,0.005-0.016,0.008
			C467.772,444.729,463.743,446.647,459.66,448.561z"/>
	</g>
	<path d="M385.689,161.027L279.41,216.435l-9.524,202.415h-0.137c0,12.61-10.223,22.833-22.833,22.833v0.005l-0.175-0.01
		c-0.735-0.005-1.464-0.042-2.182-0.115l-37.061-1.975c0,0,15.692,18.926,16.667,26.001l98.662,1.578
		c1.028,0.065,2.061,0.111,3.105,0.111c26.356,0,47.721-21.365,47.721-47.722c0-0.023-0.001-0.047-0.002-0.07
		C375.335,383.652,385.689,161.027,385.689,161.027z"/>
</g>
</svg>
